<?xml version="1.0" standalone="no"?>
<!DOCTYPE svg PUBLIC "-//W3C//DTD SVG 20010904//EN"
 "http://www.w3.org/TR/2001/REC-SVG-20010904/DTD/svg10.dtd">
<svg version="1.0" xmlns="http://www.w3.org/2000/svg"
 width="800.000000pt" height="800.000000pt" viewBox="0 0 800.000000 800.000000"
 preserveAspectRatio="xMidYMid meet">
<metadata>
Created by potrace 1.14, written by Peter Selinger 2001-2017
</metadata>
<g transform="translate(0.000000,800.000000) scale(0.100000,-0.100000)"
fill="#000000" stroke="none">
<path d="M3005 6112 c-3 -8 -4 -16 -3 -17 2 -1 44 -12 93 -25 313 -77 589
-210 831 -400 65 -51 172 -147 210 -190 13 -14 42 -45 64 -69 23 -24 53 -60
68 -80 15 -20 30 -38 33 -41 22 -17 162 -242 203 -325 26 -55 52 -108 57 -118
13 -24 60 -149 64 -169 2 -9 8 -25 13 -35 10 -18 57 -213 66 -268 13 -89 19
-122 23 -140 11 -53 8 -378 -4 -470 -7 -55 -15 -116 -18 -135 -16 -131 -101
-392 -182 -559 -44 -90 -158 -281 -195 -326 -9 -11 -40 -49 -68 -85 -28 -36
-74 -89 -102 -118 l-50 -53 1 -165 c1 -92 4 -170 6 -174 3 -5 2 -11 -2 -13 -5
-3 -6 -40 -3 -82 3 -42 3 -78 0 -80 -3 -2 -4 -25 -2 -52 l4 -49 1016 2 c559 0
1019 2 1022 3 3 0 4 181 3 401 -1 302 2 398 10 393 9 -5 9 -3 1 8 -16 20 -17
962 0 952 8 -5 8 -3 0 8 -16 20 -17 1282 0 1272 8 -5 8 -3 0 8 -8 9 -11 58
-10 139 l1 125 38 6 c21 3 37 2 37 -4 0 -5 6 -5 13 2 8 6 17 8 21 4 4 -4 19
-7 33 -8 27 0 27 -1 28 -67 0 -40 -4 -68 -10 -68 -7 0 -7 -3 0 -8 14 -9 14
-125 1 -134 -7 -5 -7 -8 2 -8 10 0 10 -5 1 -21 -6 -12 -7 -19 -2 -16 5 3 9
-12 9 -33 0 -23 -4 -36 -9 -33 -6 4 -7 1 -1 -8 11 -18 13 -139 1 -139 -4 0 -5
-5 -1 -11 12 -20 12 -69 0 -69 -7 0 -7 -3 -1 -8 11 -8 15 -152 5 -152 -4 0 -7
-7 -7 -15 0 -8 3 -12 7 -10 3 2 6 -14 6 -35 0 -23 -4 -36 -9 -33 -6 4 -7 1 -1
-8 12 -21 12 -139 0 -139 -7 0 -8 -3 -1 -8 11 -8 15 -72 5 -72 -4 0 -7 -7 -7
-15 0 -8 3 -12 7 -10 3 2 6 -14 6 -35 0 -23 -4 -36 -9 -33 -6 4 -7 1 -1 -8 11
-18 13 -139 1 -139 -4 0 -5 -5 -1 -11 12 -20 12 -69 0 -69 -7 0 -7 -3 -1 -8
14 -9 14 -125 1 -134 -7 -5 -7 -8 2 -8 10 0 10 -5 1 -21 -6 -12 -7 -19 -2 -16
5 3 9 -12 9 -33 0 -23 -4 -36 -9 -33 -6 4 -7 1 -1 -8 11 -18 13 -139 1 -139
-4 0 -5 -5 -1 -11 12 -20 12 -69 0 -69 -7 0 -7 -3 -1 -8 11 -8 15 -152 5 -152
-4 0 -7 -7 -7 -15 0 -8 3 -12 7 -10 3 2 6 -14 6 -35 0 -23 -4 -36 -9 -33 -6 4
-7 1 -1 -8 11 -18 13 -139 1 -139 -4 0 -5 -5 -1 -11 12 -20 12 -69 0 -69 -7 0
-7 -3 -1 -8 14 -9 14 -125 1 -134 -7 -5 -7 -8 2 -8 10 0 10 -5 1 -21 -6 -12
-7 -19 -2 -16 5 3 9 -12 9 -33 0 -23 -4 -36 -9 -33 -6 4 -7 1 -1 -8 11 -18 13
-139 1 -139 -4 0 -5 -5 -1 -11 12 -20 12 -69 0 -69 -7 0 -7 -3 -1 -8 11 -8 15
-152 5 -152 -4 0 -7 -7 -7 -15 0 -8 3 -12 7 -10 3 2 6 -14 6 -35 0 -23 -4 -36
-9 -33 -6 4 -7 1 -1 -8 11 -18 13 -139 2 -139 -5 0 -4 -8 1 -19 6 -10 7 -21 4
-25 -9 -9 -25 -9 469 -11 410 -1 458 0 462 14 2 9 4 966 3 2126 l-2 2110
-1010 1 c-555 1 -1015 -3 -1021 -7 -5 -5 -9 -23 -7 -41 6 -51 6 -52 -2 -70 -4
-12 -3 -18 5 -18 10 0 10 -3 0 -15 -10 -12 -10 -19 -2 -27 7 -7 8 -17 2 -28
-5 -9 -5 -22 0 -30 5 -8 4 -22 -2 -34 -8 -15 -8 -21 1 -24 9 -3 9 -7 0 -18 -9
-11 -9 -18 -1 -26 7 -7 8 -17 2 -28 -5 -9 -5 -22 0 -30 5 -8 4 -22 -2 -34 -8
-15 -8 -21 1 -24 9 -3 9 -7 0 -18 -9 -11 -9 -18 -1 -26 7 -7 8 -17 2 -28 -5
-9 -5 -22 0 -30 5 -8 4 -22 -2 -34 -8 -15 -8 -21 1 -24 9 -3 9 -7 0 -18 -9
-11 -9 -18 -1 -26 7 -7 8 -17 2 -28 -5 -9 -5 -22 0 -30 5 -8 4 -22 -2 -34 -8
-15 -8 -21 1 -24 9 -3 9 -7 0 -18 -9 -11 -9 -18 -1 -26 7 -7 8 -17 2 -28 -5
-9 -5 -22 0 -30 5 -8 4 -22 -2 -34 -8 -15 -8 -21 1 -24 9 -3 9 -7 0 -18 -9
-11 -9 -18 -1 -26 7 -7 8 -17 2 -28 -5 -9 -5 -22 0 -30 5 -8 4 -22 -2 -34 -8
-15 -8 -21 1 -24 9 -3 9 -7 0 -18 -9 -11 -9 -18 -1 -26 7 -7 8 -17 2 -28 -5
-9 -5 -22 0 -30 5 -8 4 -22 -2 -34 -8 -15 -8 -21 1 -24 9 -3 9 -7 0 -18 -9
-11 -9 -18 -1 -26 7 -7 8 -17 2 -28 -5 -9 -5 -22 0 -30 5 -8 4 -22 -2 -34 -8
-15 -8 -21 1 -24 9 -3 9 -7 0 -18 -9 -11 -9 -18 -1 -26 7 -7 8 -17 2 -28 -5
-9 -5 -22 0 -30 5 -8 4 -22 -2 -34 -8 -15 -8 -21 1 -24 9 -3 9 -7 0 -18 -9
-11 -9 -18 -1 -26 7 -7 8 -17 2 -28 -5 -9 -5 -22 0 -30 5 -8 4 -22 -2 -34 -8
-15 -8 -21 1 -24 9 -3 9 -7 0 -18 -9 -11 -9 -18 -1 -26 7 -7 8 -17 2 -28 -5
-9 -5 -22 0 -30 5 -8 4 -22 -2 -34 -8 -15 -8 -21 1 -24 9 -3 9 -7 0 -18 -9
-11 -9 -18 -1 -26 7 -7 8 -17 2 -28 -5 -9 -5 -22 0 -30 5 -8 4 -22 -2 -34 -8
-15 -8 -21 1 -24 9 -3 9 -7 0 -18 -9 -11 -9 -18 -1 -26 7 -7 8 -17 2 -28 -5
-9 -5 -22 0 -30 5 -8 4 -22 -2 -34 -8 -15 -8 -21 1 -24 9 -3 9 -7 0 -18 -9
-11 -9 -18 -1 -26 7 -7 8 -17 2 -28 -5 -9 -5 -22 0 -30 5 -8 4 -22 -2 -34 -8
-15 -8 -21 1 -24 9 -3 9 -7 0 -18 -9 -11 -9 -18 -1 -26 7 -7 8 -17 2 -28 -5
-9 -5 -22 0 -30 5 -8 4 -22 -2 -34 -8 -15 -8 -21 1 -24 9 -3 9 -7 0 -18 -9
-11 -9 -18 -1 -26 7 -7 8 -17 2 -28 -5 -9 -5 -22 0 -30 5 -8 4 -22 -2 -34 -8
-15 -8 -21 1 -24 9 -3 9 -7 0 -18 -9 -11 -9 -18 -1 -26 7 -7 8 -17 2 -28 -5
-9 -5 -22 0 -30 5 -8 4 -22 -2 -34 -8 -15 -8 -21 1 -24 9 -3 9 -7 0 -18 -9
-11 -9 -18 -1 -26 7 -7 8 -17 2 -28 -5 -9 -5 -22 0 -30 5 -8 4 -22 -2 -34 -8
-15 -8 -21 1 -24 9 -3 9 -7 0 -18 -9 -11 -9 -18 -1 -26 7 -7 8 -17 2 -28 -5
-9 -5 -22 0 -30 5 -8 4 -22 -2 -34 -8 -15 -8 -21 1 -24 9 -3 9 -7 0 -18 -9
-11 -9 -17 0 -28 7 -8 8 -17 3 -20 -5 -3 -8 -19 -6 -35 5 -44 3 -45 -139 -42
l-33 1 2 60 c1 42 -1 58 -10 53 -6 -4 -5 1 3 10 8 10 11 20 8 24 -4 3 -2 15 4
26 9 15 8 18 -2 12 -8 -6 -11 -4 -6 7 3 9 0 21 -6 28 -9 10 -9 11 0 6 8 -4 11
3 11 23 -1 19 -5 28 -12 24 -6 -4 -5 1 3 10 8 10 11 20 8 24 -4 3 -2 15 4 26
9 15 8 18 -2 12 -8 -6 -11 -4 -6 7 3 9 0 21 -6 28 -9 10 -9 11 0 6 8 -4 11 3
11 23 -1 19 -5 28 -12 24 -6 -4 -5 1 3 10 8 10 11 20 8 24 -4 3 -2 15 4 26 9
15 8 18 -2 12 -8 -6 -11 -4 -6 7 3 9 0 21 -6 28 -9 10 -9 11 0 6 8 -4 11 3 11
23 -1 19 -5 28 -12 24 -6 -4 -5 1 3 10 8 10 11 20 8 24 -4 3 -2 15 4 26 9 15
8 18 -2 12 -8 -6 -11 -4 -6 7 3 9 0 21 -6 28 -9 10 -9 11 0 6 8 -4 11 3 11 23
-1 19 -5 28 -12 24 -6 -4 -5 1 3 10 8 10 11 20 8 24 -4 3 -2 15 4 26 9 15 8
18 -2 12 -8 -6 -11 -4 -6 7 3 9 0 21 -6 28 -9 10 -9 11 0 6 8 -4 11 3 11 23
-1 19 -5 28 -12 24 -6 -4 -5 1 3 10 8 10 11 20 8 24 -4 3 -2 15 4 26 9 15 8
18 -2 12 -8 -6 -11 -4 -6 7 3 9 0 21 -6 28 -9 10 -9 11 0 6 8 -4 11 3 11 23
-1 19 -5 28 -12 24 -6 -4 -5 1 3 10 8 10 11 20 8 24 -4 3 -2 15 4 26 9 15 8
18 -2 12 -8 -6 -11 -4 -6 7 3 9 0 21 -6 28 -9 10 -9 11 0 6 8 -4 11 3 11 23
-1 19 -5 28 -12 24 -6 -4 -5 1 3 10 8 10 11 20 8 24 -4 3 -2 15 4 26 9 15 8
18 -2 12 -8 -6 -11 -4 -6 7 3 9 0 21 -6 28 -9 10 -9 11 0 6 8 -4 11 3 11 23
-1 19 -5 28 -12 24 -6 -4 -5 1 3 10 8 10 11 20 8 24 -4 3 -2 15 4 26 9 15 8
18 -2 12 -8 -6 -11 -4 -6 7 3 9 0 21 -6 28 -9 10 -9 11 0 6 8 -4 11 3 11 23
-1 19 -5 28 -12 24 -6 -4 -5 1 3 10 8 10 11 20 8 24 -4 3 -2 15 4 26 9 15 8
18 -2 12 -8 -6 -11 -4 -6 7 3 9 0 21 -6 28 -9 10 -9 11 0 6 8 -4 11 3 11 23
-1 19 -5 28 -12 24 -6 -4 -5 1 3 10 8 10 11 20 8 24 -4 3 -2 15 4 26 9 15 8
18 -2 12 -8 -6 -11 -4 -6 7 3 9 0 21 -6 28 -9 10 -9 11 0 6 8 -4 11 3 11 23
-1 19 -5 28 -12 24 -6 -4 -5 1 3 10 8 10 11 20 8 24 -4 3 -2 15 4 26 9 15 8
18 -2 12 -8 -6 -11 -4 -6 7 3 9 0 21 -6 28 -9 10 -9 11 0 6 8 -4 11 3 11 23
-1 19 -5 28 -12 24 -6 -4 -5 1 3 10 8 10 11 20 8 24 -4 3 -2 15 4 26 9 15 8
18 -2 12 -8 -6 -11 -4 -6 7 3 9 0 21 -6 28 -9 10 -9 11 0 6 8 -4 11 3 11 23
-1 19 -5 28 -12 24 -6 -4 -5 1 3 10 8 10 11 20 8 24 -4 3 -2 15 4 26 9 15 8
18 -2 12 -8 -6 -11 -4 -6 7 3 9 0 21 -6 28 -9 10 -9 11 0 6 8 -4 11 3 11 23
-1 19 -5 28 -12 24 -6 -4 -5 1 3 10 8 10 11 20 8 24 -4 3 -2 15 4 26 9 15 8
18 -2 12 -8 -6 -11 -4 -6 7 3 9 0 21 -6 28 -9 10 -9 11 0 6 8 -4 11 3 11 23
-1 19 -5 28 -12 24 -6 -4 -5 1 3 10 8 10 11 20 8 24 -4 3 -2 15 4 26 9 15 8
18 -2 12 -8 -6 -11 -4 -6 7 3 9 0 21 -6 28 -9 10 -9 11 0 6 8 -4 11 3 11 23
-1 19 -5 28 -12 24 -6 -4 -5 1 3 10 8 10 11 20 8 24 -4 3 -2 15 4 26 9 15 8
18 -2 12 -8 -6 -11 -4 -6 7 3 9 0 21 -6 28 -9 10 -9 11 0 6 8 -4 11 3 11 23
-1 19 -5 28 -12 24 -6 -4 -5 1 3 10 8 10 11 20 8 24 -4 3 -2 15 4 26 9 15 8
18 -2 12 -8 -6 -11 -4 -6 7 3 9 0 21 -6 28 -9 10 -9 11 0 6 8 -4 11 3 11 23
-1 19 -5 28 -12 24 -6 -4 -5 1 3 10 8 10 11 20 8 24 -4 3 -2 15 4 26 9 15 8
18 -2 12 -8 -6 -11 -4 -6 7 3 9 0 21 -6 28 -9 10 -9 11 0 6 8 -4 11 3 11 23
-1 19 -5 28 -12 24 -6 -4 -5 1 3 10 8 10 11 20 8 24 -4 3 -2 15 4 26 9 15 8
18 -2 12 -8 -6 -11 -4 -6 7 3 9 0 21 -6 28 -8 9 -8 11 -1 7 7 -4 12 3 12 18 0
14 -6 26 -12 27 -6 0 -464 2 -1018 2 -868 2 -1008 0 -1013 -12z m3945 -3449
c0 -2 -5 -14 -11 -25 -8 -15 -8 -19 0 -14 15 10 14 -17 -1 -33 -7 -8 -8 -11
-2 -8 13 8 16 -81 2 -89 -4 -3 -5 -11 -1 -17 13 -21 14 -50 1 -59 -7 -4 -8 -8
-2 -8 13 0 12 -118 -1 -139 -5 -10 -4 -12 3 -7 7 4 12 2 12 -3 0 -6 -6 -11
-12 -12 -70 -4 -88 -3 -88 6 0 7 -3 7 -8 0 -4 -5 -20 -10 -37 -10 -16 0 -33 5
-37 10 -5 6 -8 6 -8 -2 0 -6 -9 -9 -22 -6 -47 10 -49 12 -40 30 5 10 6 27 2
38 -4 11 -3 26 3 33 8 10 7 16 -2 21 -9 6 -10 14 -3 27 5 11 6 28 2 39 -4 11
-3 26 3 33 8 10 7 16 -2 21 -10 7 -11 13 -1 31 9 17 9 21 0 15 -9 -6 -9 -3 -1
13 8 14 8 21 0 24 -7 2 -7 12 0 31 8 20 7 27 -2 27 -8 0 -7 4 3 10 11 7 11 10
2 10 -7 0 -11 4 -8 9 6 8 256 12 256 4z"/>
<path d="M2507 5873 c-1 -1 -27 -4 -57 -7 -30 -4 -64 -8 -75 -11 -11 -2 -31
-4 -44 -4 -16 -1 -21 -5 -18 -16 4 -8 1 -17 -5 -21 -7 -4 -8 -3 -4 4 4 7 2 12
-4 12 -6 0 -9 4 -6 8 3 5 -1 9 -9 9 -8 0 -12 -4 -10 -7 3 -4 -8 -8 -23 -9 -62
-1 -64 -2 -42 -23 29 -27 25 -33 -6 -9 -28 22 -54 27 -54 11 0 -5 -8 -6 -17
-3 -16 6 -17 5 -3 -12 14 -17 13 -18 -5 -8 -23 12 -77 7 -86 -9 -3 -5 -9 -9
-13 -9 -29 4 -46 -1 -40 -11 4 -7 3 -8 -5 -4 -13 8 -53 -2 -47 -12 2 -4 -8 -8
-22 -9 -47 -2 -281 -129 -391 -210 -13 -10 -36 -27 -51 -38 -91 -66 -221 -193
-330 -322 -5 -7 -10 -17 -10 -23 0 -5 -4 -10 -8 -10 -8 0 -39 -43 -94 -129
-45 -69 -136 -242 -143 -271 0 -3 -6 -15 -13 -27 -7 -13 -10 -23 -6 -23 3 0 2
-6 -4 -12 -34 -43 -103 -336 -119 -506 -10 -113 -6 -352 6 -352 3 0 7 -21 8
-48 0 -26 3 -58 6 -72 3 -14 8 -43 12 -65 19 -113 73 -280 135 -413 24 -51 47
-92 53 -92 6 0 8 -3 4 -6 -3 -3 4 -23 17 -43 13 -20 26 -46 30 -58 4 -13 14
-23 22 -23 8 0 14 -8 14 -18 0 -10 16 -35 35 -55 19 -20 32 -37 29 -37 -3 0 7
-16 22 -35 14 -19 31 -32 37 -28 6 3 7 1 3 -5 -7 -12 19 -44 120 -145 59 -59
148 -137 172 -151 10 -5 23 -16 31 -23 7 -8 20 -12 27 -9 8 3 13 2 13 -2 -3
-18 2 -32 11 -32 6 0 33 -16 60 -35 27 -19 52 -35 54 -35 2 0 30 -15 63 -33
106 -60 269 -125 410 -162 180 -49 426 -70 624 -54 85 7 162 17 189 24 8 2 31
7 50 10 54 9 177 44 264 76 188 70 375 177 546 314 61 49 240 237 292 306 164
219 298 509 333 719 2 14 9 45 15 69 6 24 8 51 6 58 -3 8 -2 11 4 8 5 -3 8 9
6 30 -1 20 1 38 4 40 4 3 6 21 5 40 -1 20 2 38 6 41 5 2 6 11 3 19 -4 8 -10
12 -15 9 -5 -3 -6 2 -3 10 3 9 9 14 13 12 9 -6 7 147 -2 162 -5 6 -4 12 2 12
5 0 8 10 5 23 -2 12 -5 39 -6 59 -1 20 -4 36 -7 34 -3 -2 -5 12 -5 32 1 30
-10 97 -30 187 -24 103 -30 123 -39 118 -6 -3 -7 -1 -4 4 11 18 -66 228 -105
284 -9 14 -15 29 -11 33 3 3 1 6 -6 6 -7 0 -10 4 -6 9 3 5 0 13 -5 16 -6 4
-15 18 -21 32 -5 13 -13 21 -19 18 -5 -3 -7 0 -5 7 5 11 -74 142 -94 158 -4 3
-15 18 -24 33 -10 16 -24 26 -32 24 -8 -4 -11 0 -8 11 6 26 -189 224 -213 216
-14 -4 -15 -3 -6 3 10 8 6 15 -18 34 -18 13 -37 29 -43 34 -53 45 -107 85
-116 85 -6 0 -11 5 -11 10 0 6 -6 10 -14 10 -8 0 -16 5 -18 10 -2 6 -13 12
-25 13 -12 0 -20 4 -17 8 5 9 -273 149 -296 149 -9 0 -20 4 -26 8 -5 5 -36 17
-69 26 -33 10 -67 20 -75 23 -8 4 -22 7 -30 8 -8 1 -33 5 -55 10 -45 10 -41 9
-75 18 -35 10 -91 16 -189 22 -46 3 -87 8 -92 10 -4 3 -10 1 -14 -5 -4 -6 -11
-7 -17 -4 -9 6 -126 12 -131 7z m-257 -68 c14 -19 14 -19 -2 -6 -10 7 -18 18
-18 24 0 6 1 8 3 6 1 -2 9 -13 17 -24z m-59 -22 c13 -15 17 -22 8 -15 -9 6
-20 8 -25 4 -5 -4 -6 -3 -2 2 4 5 3 15 -3 23 -21 25 -3 13 22 -14z m103 19 c3
-5 -1 -9 -9 -9 -8 0 -12 4 -9 9 3 4 7 8 9 8 2 0 6 -4 9 -8z m53 -6 c0 -8 -5
-14 -10 -13 -5 1 -12 -4 -15 -12 -3 -9 0 -11 9 -6 8 5 11 4 6 -1 -5 -5 -12 -8
-15 -7 -4 1 -12 -3 -18 -8 -7 -5 -11 -3 -11 6 0 8 4 12 9 9 7 -5 12 10 9 29
-1 5 3 6 9 2 5 -3 10 -1 10 4 0 6 4 11 8 11 5 0 9 -6 9 -14z m43 10 c0 -3 -4
-8 -10 -11 -5 -3 -10 -1 -10 4 0 6 5 11 10 11 6 0 10 -2 10 -4z m-246 -44 c3
-5 -1 -9 -9 -9 -8 0 -12 4 -9 9 3 4 7 8 9 8 2 0 6 -4 9 -8z m226 -2 c0 -5 -2
-10 -4 -10 -3 0 -8 5 -11 10 -3 6 -1 10 4 10 6 0 11 -4 11 -10z m-87 -25 c4
-8 3 -16 -1 -19 -4 -3 -9 4 -9 15 -2 23 3 25 10 4z m-253 -15 c0 -5 -5 -10
-11 -10 -5 0 -7 5 -4 10 3 6 8 10 11 10 2 0 4 -4 4 -10z m230 4 c0 -8 -19 -13
-24 -6 -3 5 1 9 9 9 8 0 15 -2 15 -3z m-130 -8 c0 -2 -8 -10 -17 -17 -16 -13
-17 -12 -4 4 13 16 21 21 21 13z m-160 -36 c0 -5 -4 -10 -10 -10 -5 0 -10 5
-10 10 0 6 5 10 10 10 6 0 10 -4 10 -10z m865 -220 c33 -6 69 -13 80 -14 75
-12 240 -68 342 -117 180 -86 365 -232 493 -389 25 -30 47 -57 50 -60 4 -3 21
-29 40 -57 18 -29 38 -53 43 -53 6 0 8 -3 4 -6 -3 -3 13 -41 35 -83 67 -125
124 -290 144 -417 3 -20 8 -46 11 -58 10 -39 11 -341 2 -396 -5 -30 -11 -66
-13 -80 -31 -206 -168 -499 -316 -674 -215 -253 -517 -437 -822 -500 -128 -26
-141 -28 -288 -30 -141 -3 -282 11 -365 35 -22 6 -51 13 -64 16 -88 16 -310
118 -425 196 -354 240 -604 651 -643 1057 -11 108 -8 306 6 381 6 35 13 78 16
94 17 94 70 243 126 357 38 76 148 246 185 285 174 186 302 286 473 370 64 31
125 60 136 64 145 52 232 73 360 86 33 3 61 7 63 8 8 7 276 -5 327 -15z m1255
-324 c0 -2 -8 -10 -17 -17 -16 -13 -17 -12 -4 4 13 16 21 21 21 13z m358 -941
c-3 -3 -9 2 -12 12 -6 14 -5 15 5 6 7 -7 10 -15 7 -18z m-28 -255 c8 -5 11
-10 5 -10 -5 0 -17 5 -25 10 -8 5 -10 10 -5 10 6 0 17 -5 25 -10z m21 -43
c-10 -9 -11 -8 -5 6 3 10 9 15 12 12 3 -3 0 -11 -7 -18z m-118 -52 c-3 -9 -8
-14 -10 -11 -3 3 -2 9 2 15 9 16 15 13 8 -4z m37 1 c0 -2 -8 -10 -17 -17 -16
-13 -17 -12 -4 4 13 16 21 21 21 13z m70 -126 c0 -5 -2 -10 -4 -10 -3 0 -8 5
-11 10 -3 6 -1 10 4 10 6 0 11 -4 11 -10z m-60 -14 c0 -3 -4 -8 -10 -11 -5 -3
-10 -1 -10 4 0 6 5 11 10 11 6 0 10 -2 10 -4z m60 -61 c7 -9 8 -15 2 -15 -5 0
-12 7 -16 15 -3 8 -4 15 -2 15 2 0 9 -7 16 -15z m-16 -32 c5 -13 4 -14 -9 -3
-16 14 -21 0 -5 -16 6 -6 4 -10 -8 -10 -23 0 -23 42 0 43 9 1 19 -5 22 -14z
m-2 -50 c-6 -2 -10 -9 -7 -13 3 -5 1 -11 -4 -14 -7 -5 -8 11 -2 32 1 1 7 2 14
1 9 0 9 -2 -1 -6z m-3226 -685 c3 -4 -1 -5 -10 -4 -8 1 -18 5 -22 8 -3 4 1 5
10 4 8 -1 18 -5 22 -8z m144 -198 c0 -5 -5 -10 -11 -10 -5 0 -7 5 -4 10 3 6 8
10 11 10 2 0 4 -4 4 -10z"/>
<path d="M2640 5143 c0 -4 -33 -8 -72 -8 -87 0 -130 -6 -140 -20 -5 -6 -11 -5
-17 3 -7 11 -10 11 -22 0 -8 -7 -23 -13 -34 -12 -28 0 -78 -17 -87 -30 -6 -8
-8 -8 -8 1 0 12 -65 -10 -125 -41 -16 -9 -36 -16 -42 -16 -7 0 -13 -4 -13 -10
0 -5 -6 -10 -13 -10 -28 0 -188 -119 -268 -200 -163 -166 -259 -348 -309 -588
-24 -116 -24 -412 0 -397 4 2 5 -6 3 -18 -5 -25 37 -179 62 -229 8 -17 15 -35
15 -39 0 -13 115 -204 136 -226 11 -11 39 -43 63 -71 24 -29 47 -49 52 -46 5
3 8 2 7 -3 -2 -4 10 -20 25 -35 15 -15 27 -24 27 -20 0 4 5 -1 10 -10 14 -23
130 -99 226 -147 84 -42 226 -88 298 -96 23 -3 52 -8 66 -10 14 -3 72 -6 130
-7 416 -3 815 235 1008 602 33 64 81 178 82 195 0 3 1 7 1 10 1 3 3 10 4 15 1
6 3 11 5 13 1 1 3 9 5 17 1 8 6 29 10 45 7 28 6 29 -7 11 -12 -15 -17 -16 -23
-6 -6 9 -4 11 5 5 10 -6 12 -4 7 8 -3 9 -3 16 1 16 24 -4 33 3 30 24 -2 12 -9
21 -16 19 -8 -1 -11 2 -7 8 3 6 10 8 15 5 16 -10 23 64 17 193 -5 122 -9 158
-22 212 -4 14 -8 34 -10 45 -15 75 -81 229 -95 220 -5 -3 -7 0 -4 8 5 15 -43
97 -100 172 -82 107 -273 274 -296 260 -6 -4 -9 -1 -8 5 4 16 -127 83 -232
119 -67 24 -87 27 -99 18 -12 -9 -13 -9 -8 0 8 13 -39 31 -50 19 -3 -3 -12 -1
-18 4 -7 6 -42 12 -78 14 -36 2 -71 7 -77 11 -5 3 -10 3 -10 -2z m-234 -58 c1
-8 -1 -17 -5 -19 -4 -3 -7 6 -7 19 0 25 8 25 12 0z m56 7 c-7 -2 -9 -9 -5 -15
4 -7 -2 -5 -13 3 -29 22 -30 24 -11 17 9 -4 17 -2 17 4 0 6 5 7 12 3 9 -6 9
-9 0 -12z m-138 -10 c3 -5 -1 -9 -9 -9 -8 0 -12 4 -9 9 3 4 7 8 9 8 2 0 6 -4
9 -8z m46 -1 c0 -6 -4 -12 -8 -15 -5 -3 -9 1 -9 9 0 8 4 15 9 15 4 0 8 -4 8
-9z m15 -40 c-9 -8 -36 -10 -30 -2 2 4 11 8 20 8 8 0 13 -3 10 -6z m450 -170
c86 -22 236 -92 298 -138 55 -40 168 -151 202 -198 16 -22 34 -43 39 -47 6 -4
7 -8 3 -8 -5 0 0 -12 10 -27 123 -187 158 -500 81 -728 -60 -177 -185 -352
-318 -445 -19 -13 -37 -27 -40 -30 -18 -19 -141 -78 -225 -107 -92 -32 -145
-38 -295 -37 -144 2 -239 23 -359 79 -324 154 -522 471 -516 827 2 125 10 170
51 298 3 8 5 16 5 18 -1 1 11 26 25 55 93 185 244 338 419 423 76 38 188 74
250 81 22 2 42 6 44 9 13 12 254 -6 326 -25z m835 -1051 c0 -5 -2 -10 -4 -10
-3 0 -8 5 -11 10 -3 6 -1 10 4 10 6 0 11 -4 11 -10z m-29 -73 c-10 -9 -11 -8
-5 6 3 10 9 15 12 12 3 -3 0 -11 -7 -18z m40 6 c13 -16 12 -17 -3 -4 -17 13
-22 21 -14 21 2 0 10 -8 17 -17z"/>
<path d="M3905 2314 c-77 -63 -258 -176 -360 -223 -38 -18 -79 -37 -89 -43
-40 -22 -235 -86 -342 -113 -88 -22 -111 -31 -109 -44 2 -14 48 -16 467 -16
l466 -1 0 41 c0 22 1 42 2 45 6 18 5 50 -1 50 -9 0 -6 41 4 57 4 6 2 15 -4 19
-8 4 -7 9 2 15 11 7 11 9 1 9 -10 0 -10 5 -2 20 6 11 7 20 3 20 -10 0 -10 47
0 56 3 3 2 17 -3 30 -6 15 -6 26 1 30 7 4 6 10 -1 19 -8 10 -7 14 2 18 9 4 10
6 1 6 -7 1 -10 8 -7 16 8 20 4 19 -31 -11z"/>
</g>
</svg>
